name C:/MyDriveSym/Projects/mobilecap/Data\Session20210823_0002\mocap\ForceDataProcessed\walking1_forces.mot
datacolumns 19
datarows 24
range 0.71450000 0.72600000
endheader 
time	R_ground_force_vx	R_ground_force_vy	R_ground_force_vz	R_ground_force_px	R_ground_force_py	R_ground_force_pz	R_ground_torque_x	R_ground_torque_y	R_ground_torque_z	L_ground_force_vx	L_ground_force_vy	L_ground_force_vz	L_ground_force_px	L_ground_force_py	L_ground_force_pz	L_ground_torque_x	L_ground_torque_y	L_ground_torque_z	
          0.71450000	          5.71841400	         36.08492800	         -1.28186200	          0.44072400	          0.00600000	         -0.13663800	          0.00000000	          0.05895100	          0.00000000	        -98.96927900	        568.64923900	         34.10494000	          0.91504500	          0.00600000	         -0.28586100	          0.00000000	         -0.11790900	          0.00000000	
          0.71500000	          5.18753700	         34.81441600	         -1.33674400	          0.44151800	          0.00600000	         -0.13626800	          0.00000000	          0.06018700	          0.00000000	        -99.07696400	        570.36897100	         34.35132700	          0.91527500	          0.00600000	         -0.28589700	          0.00000000	         -0.11774000	          0.00000000	
          0.71550000	          4.66869200	         33.56841400	         -1.38655700	          0.44232400	          0.00600000	         -0.13588100	          0.00000000	          0.06099600	          0.00000000	        -99.17715200	        572.07582500	         34.59587600	          0.91550300	          0.00600000	         -0.28593300	          0.00000000	         -0.11768700	          0.00000000	
          0.71600000	          4.16210700	         32.34668400	         -1.43146400	          0.44314400	          0.00600000	         -0.13547600	          0.00000000	          0.06139800	          0.00000000	        -99.27019700	        573.76951100	         34.83842400	          0.91572800	          0.00600000	         -0.28596900	          0.00000000	         -0.11773100	          0.00000000	
          0.71650000	          3.66805900	         31.14893100	         -1.47160400	          0.44397800	          0.00600000	         -0.13505200	          0.00000000	          0.06141600	          0.00000000	        -99.35642800	        575.44974900	         35.07880900	          0.91595200	          0.00600000	         -0.28600500	          0.00000000	         -0.11785700	          0.00000000	
          0.71700000	          3.18688700	         29.97482100	         -1.50708100	          0.44482600	          0.00600000	         -0.13461000	          0.00000000	          0.06106800	          0.00000000	        -99.43615600	        577.11626300	         35.31686800	          0.91617400	          0.00600000	         -0.28604200	          0.00000000	         -0.11805300	          0.00000000	
          0.71750000	          2.71899600	         28.82399100	         -1.53795800	          0.44569000	          0.00600000	         -0.13415000	          0.00000000	          0.06036400	          0.00000000	        -99.50968300	        578.76877200	         35.55243300	          0.91639300	          0.00600000	         -0.28607800	          0.00000000	         -0.11831100	          0.00000000	
          0.71800000	          2.26486500	         27.69607500	         -1.56426600	          0.44657100	          0.00600000	         -0.13367200	          0.00000000	          0.05931400	          0.00000000	        -99.57731300	        580.40699600	         35.78533200	          0.91661100	          0.00600000	         -0.28611400	          0.00000000	         -0.11862400	          0.00000000	
          0.71850000	          1.82503900	         26.59071400	         -1.58601600	          0.44747100	          0.00600000	         -0.13317600	          0.00000000	          0.05792400	          0.00000000	        -99.63934900	        582.03066300	         36.01539700	          0.91682700	          0.00600000	         -0.28615100	          0.00000000	         -0.11899000	          0.00000000	
          0.71900000	          1.40010200	         25.50756300	         -1.60322200	          0.44839100	          0.00600000	         -0.13266300	          0.00000000	          0.05620400	          0.00000000	        -99.69608900	        583.63951400	         36.24246400	          0.91704100	          0.00600000	         -0.28618700	          0.00000000	         -0.11940700	          0.00000000	
          0.71950000	          0.99065000	         24.44627800	         -1.61590400	          0.44933600	          0.00600000	         -0.13213200	          0.00000000	          0.05416500	          0.00000000	        -99.74781700	        585.23329100	         36.46637600	          0.91725400	          0.00600000	         -0.28622300	          0.00000000	         -0.11987600	          0.00000000	
          0.72000000	          0.59726600	         23.40649200	         -1.62409300	          0.45030600	          0.00600000	         -0.13158400	          0.00000000	          0.05182100	          0.00000000	        -99.79478500	        586.81173700	         36.68698400	          0.91746500	          0.00600000	         -0.28625900	          0.00000000	         -0.12039400	          0.00000000	
          0.72050000	          0.22050700	         22.38780200	         -1.62783600	          0.45130600	          0.00600000	         -0.13101700	          0.00000000	          0.04918500	          0.00000000	        -99.83719400	        588.37460500	         36.90414200	          0.91767400	          0.00600000	         -0.28629500	          0.00000000	         -0.12095900	          0.00000000	
          0.72100000	         -0.13909200	         21.38978200	         -1.62719100	          0.45233900	          0.00600000	         -0.13043100	          0.00000000	          0.04626900	          0.00000000	        -99.87520100	        589.92166600	         37.11771000	          0.91788300	          0.00600000	         -0.28633100	          0.00000000	         -0.12156300	          0.00000000	
          0.72150000	         -0.48100300	         20.41200800	         -1.62223000	          0.45356800	          0.00600000	         -0.13044400	          0.00000000	          0.04309200	          0.00000000	        -99.90893400	        591.45274000	         37.32756400	          0.91808900	          0.00600000	         -0.28636600	          0.00000000	         -0.12220000	          0.00000000	
          0.72200000	          0.00000000	          0.00000000	          0.00000000	          0.45479800	          0.00000000	         -0.13045600	          0.00000000	          0.00000000	          0.00000000	        -99.93850200	        592.96768900	         37.53360600	          0.91829500	          0.00600000	         -0.28640200	          0.00000000	         -0.12286300	          0.00000000	
          0.72250000	          0.00000000	          0.00000000	          0.00000000	          0.45602800	          0.00000000	         -0.13046900	          0.00000000	          0.00000000	          0.00000000	        -99.96398600	        594.46640400	         37.73576800	          0.91849900	          0.00600000	         -0.28643700	          0.00000000	         -0.12354900	          0.00000000	
          0.72300000	          0.00000000	          0.00000000	          0.00000000	          0.45725800	          0.00000000	         -0.13048100	          0.00000000	          0.00000000	          0.00000000	        -99.98542900	        595.94877700	         37.93400800	          0.91870200	          0.00600000	         -0.28647200	          0.00000000	         -0.12426200	          0.00000000	
          0.72350000	          0.00000000	          0.00000000	          0.00000000	          0.45848800	          0.00000000	         -0.13049400	          0.00000000	          0.00000000	          0.00000000	       -100.00284800	        597.41468300	         38.12831100	          0.91890400	          0.00600000	         -0.28650700	          0.00000000	         -0.12501000	          0.00000000	
          0.72400000	          0.00000000	          0.00000000	          0.00000000	          0.45971700	          0.00000000	         -0.13050600	          0.00000000	          0.00000000	          0.00000000	       -100.01625200	        598.86398000	         38.31868300	          0.91910500	          0.00600000	         -0.28654100	          0.00000000	         -0.12580500	          0.00000000	
          0.72450000	          0.00000000	          0.00000000	          0.00000000	          0.46094700	          0.00000000	         -0.13051900	          0.00000000	          0.00000000	          0.00000000	       -100.02564700	        600.29652500	         38.50515100	          0.91930500	          0.00600000	         -0.28657500	          0.00000000	         -0.12665600	          0.00000000	
          0.72500000	          0.00000000	          0.00000000	          0.00000000	          0.46217700	          0.00000000	         -0.13053100	          0.00000000	          0.00000000	          0.00000000	       -100.03104100	        601.71220300	         38.68775400	          0.91950400	          0.00600000	         -0.28660800	          0.00000000	         -0.12756600	          0.00000000	
          0.72550000	          0.00000000	          0.00000000	          0.00000000	          0.46340700	          0.00000000	         -0.13054400	          0.00000000	          0.00000000	          0.00000000	       -100.03243600	        603.11092700	         38.86655600	          0.91970100	          0.00600000	         -0.28664100	          0.00000000	         -0.12854300	          0.00000000	
          0.72600000	          0.00000000	          0.00000000	          0.00000000	          0.46463700	          0.00000000	         -0.13055600	          0.00000000	          0.00000000	          0.00000000	       -100.02982300	        604.49265800	         39.04164300	          0.91989800	          0.00600000	         -0.28667300	          0.00000000	         -0.12959200	          0.00000000	
